<svg width="41" height="55" viewBox="0 0 41 55" fill="none" xmlns="http://www.w3.org/2000/svg">
<path d="M12.9322 19.1906C12.5589 19.1906 12.2563 19.5479 12.2563 19.989V21.6072C12.2563 22.0481 12.5588 22.4056 12.9322 22.4056C13.3054 22.4056 13.608 22.0481 13.608 21.6072V19.989C13.608 19.5479 13.3054 19.1906 12.9322 19.1906Z" fill="#134C5F"/>
<path d="M28.0679 19.1906C27.6947 19.1906 27.3921 19.5479 27.3921 19.989V21.6072C27.3921 22.0481 27.6947 22.4056 28.0679 22.4056C28.4411 22.4056 28.7437 22.0481 28.7437 21.6072V19.989C28.7437 19.5479 28.441 19.1906 28.0679 19.1906Z" fill="#134C5F"/>
<path d="M22.8129 20.8935C22.5319 20.6033 22.105 20.6371 21.8593 20.9691C21.5286 21.4161 21.0332 21.6725 20.5002 21.6725C19.9672 21.6725 19.4719 21.4161 19.1412 20.9691C18.8956 20.6372 18.4687 20.6032 18.1876 20.8934C17.9066 21.1837 17.8779 21.688 18.1235 22.02C18.711 22.8141 19.5773 23.2694 20.5002 23.2694C21.4232 23.2694 22.2895 22.8141 22.8769 22.0202C23.1226 21.6882 23.0938 21.1838 22.8129 20.8935Z" fill="#134C5F"/>
<path d="M5.11034 9.5907C4.07725 9.5907 3.23682 10.5837 3.23682 11.8042C3.23682 13.0248 4.07725 14.0177 5.11034 14.0177C6.14343 14.0177 6.98387 13.0248 6.98387 11.8042C6.98396 10.5837 6.14343 9.5907 5.11034 9.5907ZM5.11034 12.4208C4.82254 12.4208 4.58844 12.1443 4.58844 11.8042C4.58844 11.4643 4.82254 11.1876 5.11034 11.1876C5.39815 11.1876 5.63225 11.4643 5.63225 11.8042C5.63234 12.1443 5.39815 12.4208 5.11034 12.4208Z" fill="#134C5F"/>
<path d="M35.8896 9.5907C34.8566 9.5907 34.0161 10.5837 34.0161 11.8042C34.0161 13.0248 34.8566 14.0177 35.8896 14.0177C36.9227 14.0177 37.7632 13.0248 37.7632 11.8042C37.7632 10.5837 36.9228 9.5907 35.8896 9.5907ZM35.8896 12.4208C35.6018 12.4208 35.3677 12.1443 35.3677 11.8042C35.3677 11.4643 35.6018 11.1876 35.8896 11.1876C36.1774 11.1876 36.4115 11.4643 36.4115 11.8042C36.4115 12.1443 36.1775 12.4208 35.8896 12.4208Z" fill="#134C5F"/>
<path d="M39.1194 0C38.0825 0 37.2389 0.996666 37.2389 2.22179V7.28784H36.3451V2.22179C36.3451 0.996666 35.5015 0 34.4645 0C33.4276 0 32.584 0.996666 32.584 2.22179V7.28784H31.6902V2.22179C31.6902 0.996666 30.8466 0 29.8096 0C28.7727 0 27.9291 0.996666 27.9291 2.22179V7.28784H27.0353V2.22179C27.0353 0.996666 26.1917 0 25.1547 0C24.1178 0 23.2742 0.996666 23.2742 2.22179V7.28784H22.3804V2.22179C22.3805 0.996666 21.5369 0 20.4999 0C19.4629 0 18.6193 0.996666 18.6193 2.22179V7.28784H17.7256V2.22179C17.7256 0.996666 16.882 0 15.845 0C14.808 0 13.9644 0.996666 13.9644 2.22179V7.28784H13.0707V2.22179C13.0707 0.996666 12.2271 0 11.1901 0C10.1531 0 9.30954 0.996666 9.30954 2.22179V7.28784H8.41576V2.22179C8.41576 0.996666 7.57216 0 6.53519 0C5.49823 0 4.65463 0.996666 4.65463 2.22179V7.28784H3.76085V2.22179C3.76094 0.996666 2.91735 0 1.88056 0C0.843684 0 0 0.996666 0 2.22179V8.08628V17.8278C0 24.0837 4.3079 29.1732 9.60293 29.1732H16.8133C16.7747 34.4855 16.3496 36.7813 15.8916 38.4564C15.7769 38.8759 15.9718 39.326 16.3269 39.4615C16.6821 39.5972 17.063 39.3668 17.1777 38.9472C17.6691 37.1503 18.1254 34.7125 18.1652 29.1732H22.8345C22.8817 35.7782 23.5154 37.9295 24.077 39.8356C24.5105 41.3068 24.8848 42.5773 24.8848 45.9241C24.8848 48.4009 24.3644 50.2662 23.3379 51.4687C22.1083 52.9091 20.5228 52.9117 20.5126 52.91C20.5065 52.9099 20.4968 52.9099 20.4905 52.9099C20.4726 52.9105 18.8911 52.9087 17.6619 51.4687C16.6353 50.2662 16.1149 48.4009 16.1149 45.9241C16.1149 44.4847 16.1859 43.3096 16.332 42.3315C16.3968 41.8972 16.1515 41.4831 15.7838 41.4064C15.416 41.33 15.0657 41.6198 15.0009 42.054C14.8387 43.1396 14.7632 44.3694 14.7632 45.9241C14.7632 48.858 15.425 51.1129 16.7302 52.6261C18.3014 54.4476 20.2453 54.5068 20.4898 54.5068C20.4974 54.5068 20.5025 54.5068 20.5101 54.5068C20.7548 54.5068 22.6986 54.4475 24.2696 52.6261C25.5748 51.1128 26.2367 48.8579 26.2367 45.9241C26.2367 42.3073 25.8077 40.8518 25.3537 39.3106C24.8267 37.5224 24.2325 35.5041 24.1865 29.1732H31.3971C36.6922 29.1732 41 24.0836 41 17.8278V8.08628V2.22179C41 0.996666 40.1564 0 39.1194 0ZM34.4645 1.59688C34.7562 1.59688 34.9935 1.87718 34.9935 2.22179V7.28784H33.9357V2.22179H33.9356C33.9356 1.87718 34.1729 1.59688 34.4645 1.59688ZM29.8097 1.59688C30.1014 1.59688 30.3387 1.87718 30.3387 2.22179V7.28784H29.2809V2.22179H29.2808C29.2808 1.87718 29.518 1.59688 29.8097 1.59688ZM24.6259 2.22179C24.6259 1.87718 24.8631 1.59688 25.1548 1.59688C25.4465 1.59688 25.6838 1.87718 25.6838 2.22179V7.28784H24.6259V2.22179ZM19.971 2.22179C19.971 1.87718 20.2082 1.59688 20.4999 1.59688C20.7915 1.59688 21.0288 1.87718 21.0288 2.22179V7.28784H19.971V2.22179ZM15.8451 1.59688C16.1368 1.59688 16.374 1.87718 16.374 2.22179V7.28784H15.3162V2.22179H15.3162C15.3162 1.87718 15.5534 1.59688 15.8451 1.59688ZM11.1902 1.59688C11.4819 1.59688 11.7191 1.87718 11.7191 2.22179V7.28784H10.6613V2.22179H10.6613C10.6613 1.87718 10.8985 1.59688 11.1902 1.59688ZM6.00653 2.22179C6.00653 1.87718 6.24378 1.59688 6.53547 1.59688C6.82715 1.59688 7.0644 1.87718 7.0644 2.22179V7.28784H6.00653V2.22179ZM1.35153 2.22179C1.35153 1.87718 1.58879 1.59688 1.88047 1.59688C2.17215 1.59688 2.40932 1.87718 2.40932 2.22179V7.28784H1.35153V2.22179ZM39.6484 17.8278C39.6484 23.2032 35.9468 27.5763 31.3971 27.5763H9.60284C5.053 27.5763 1.35153 23.2031 1.35153 17.8278V16.3756H39.6483V17.8278H39.6484ZM39.6484 14.7787H1.35153V8.88472H39.6483V14.7787H39.6484ZM39.6484 7.28784H38.5906V2.22179H38.5905C38.5905 1.87718 38.8278 1.59688 39.1194 1.59688C39.4111 1.59688 39.6484 1.87718 39.6484 2.22179V7.28784Z" fill="#134C5F"/>
</svg>
