<svg width="55" height="56" viewBox="0 0 55 56" fill="none" xmlns="http://www.w3.org/2000/svg">
<path d="M10.7783 46.6273C9.90471 47.0949 8.91643 47.342 7.92021 47.342H4.23961C3.6778 47.342 3.22072 47.8034 3.22072 48.3704V50.5058C3.22072 51.2597 3.8284 51.8729 4.5752 51.8729C4.77543 51.8729 4.93829 52.0373 4.93829 52.2394V52.9044C4.93829 53.2328 4.67371 53.4998 4.34843 53.4998H2.19892C1.87365 53.4998 1.60907 53.2328 1.60907 52.9044V45.4649C1.60907 45.3438 1.70661 45.2454 1.82638 45.2454C2.92241 45.2454 3.81412 44.3453 3.81412 43.239V41.4021V37.3115V36.9474C3.81412 34.2194 4.87104 31.6586 6.79002 29.7368C6.9663 29.5604 7.05192 29.3116 7.02205 29.063C6.9923 28.8144 6.85039 28.5934 6.6377 28.4644C3.59025 26.6165 1.69716 23.2484 1.69716 19.6747V16.2856C1.69716 15.8379 2.05799 15.4737 2.50153 15.4737C2.94507 15.4737 3.3059 15.8379 3.3059 16.2856V19.6747C3.3059 23.3008 5.58013 26.5624 8.9651 27.7907C9.1663 27.8637 9.38802 27.8529 9.58116 27.7606L9.6614 27.7213C10.9866 27.1032 12.405 26.7899 13.8772 26.7899H25.8721C26.3164 26.7899 26.6765 26.4263 26.6765 25.9779C26.6765 25.5295 26.3163 25.166 25.8721 25.166H13.8771C12.2525 25.166 10.6836 25.4955 9.2097 26.1459C6.62792 25.0702 4.91465 22.5096 4.91465 19.6748V16.2857C4.91465 14.9426 3.83206 13.8499 2.50142 13.8499C1.17079 13.8499 0.0881933 14.9425 0.0881933 16.2856V19.6747C0.0881933 23.4842 1.9439 27.0913 4.98877 29.3102C3.18699 31.4391 2.20505 34.1157 2.20505 36.9475V37.3116V41.4022V43.2391C2.20505 43.45 2.0351 43.6215 1.82617 43.6215C0.819198 43.6215 0 44.4484 0 45.4649V52.9044C0 54.1282 0.986346 55.1238 2.19871 55.1238H4.34822C5.56058 55.1238 6.54693 54.1282 6.54693 52.9044V52.2394C6.54693 51.2289 5.79701 50.3918 4.82936 50.2655V48.9659H7.92031C9.17822 48.9659 10.4271 48.6535 11.5319 48.0622C11.9245 47.8522 12.0739 47.3606 11.8658 46.9644C11.6576 46.5681 11.1707 46.4175 10.7783 46.6273Z" fill="#134C5F"/>
<path d="M45.707 20.3663C46.3211 20.3663 46.8188 19.8639 46.8188 19.2441C46.8188 18.6243 46.3211 18.1218 45.707 18.1218C45.093 18.1218 44.5952 18.6243 44.5952 19.2441C44.5952 19.8639 45.093 20.3663 45.707 20.3663Z" fill="#134C5F"/>
<path d="M53.4691 16.406H51.1869H49.0229C48.2498 16.406 47.5146 16.1108 46.9527 15.575C46.0907 14.7531 44.9632 14.3004 43.7776 14.3004H40.3482C38.9636 14.3004 37.6173 14.6958 36.4547 15.444C36.4403 15.4533 36.427 15.4636 36.4133 15.4737H34.9842C33.5404 15.4737 32.3658 16.6594 32.3658 18.1167V19.7586C32.3658 20.6838 32.6177 21.5738 33.0964 22.3538V24.622C33.0964 24.9221 32.8547 25.1661 32.5573 25.1661H30.4754L26.3855 21.0379L27.0935 20.3232C27.4622 19.9511 27.6653 19.4562 27.6653 18.9299C27.6653 18.4036 27.4622 17.9088 27.0935 17.5366L19.2845 9.65417C18.9704 9.33712 18.461 9.33712 18.1469 9.65417C17.8327 9.97122 17.8327 10.4854 18.1469 10.8024L25.9559 18.6848C26.0434 18.773 26.0565 18.8761 26.0565 18.9298C26.0565 18.9834 26.0435 19.0866 25.9559 19.1749L23.4023 21.7524C23.3149 21.8407 23.2127 21.8539 23.1595 21.8539C23.1065 21.8539 23.0043 21.8408 22.9168 21.7524L9.60413 8.31473L12.6432 5.24714L15.6448 8.27689C15.9589 8.59394 16.4683 8.59394 16.7824 8.27689C17.0966 7.95984 17.0966 7.44567 16.7824 7.12862L13.7808 4.09887L14.9094 2.9597C15.2236 2.64265 15.2236 2.12848 14.9094 1.81143C14.5953 1.49438 14.0859 1.49438 13.7718 1.81143L12.0749 3.52419C12.0747 3.52441 11.8925 3.7083 11.8925 3.7083L8.61145 0.396311C8.35826 0.140742 8.0216 0 7.66346 0C7.30531 0 6.96865 0.140742 6.71546 0.396311L4.81206 2.31769C4.55887 2.57326 4.41943 2.91308 4.41943 3.27458C4.41943 3.63609 4.55887 3.97591 4.81206 4.23148L8.09314 7.54336L6.20037 9.4539C5.88617 9.77095 5.88617 10.2851 6.20037 10.6022C6.35743 10.7607 6.56335 10.84 6.76917 10.84C6.97499 10.84 7.18092 10.7607 7.33797 10.6022L8.46654 9.463L21.7793 22.9007C22.148 23.2729 22.6381 23.4778 23.1597 23.4778C23.6811 23.4778 24.1712 23.2729 24.54 22.9007L25.248 22.1861L30.8358 27.8264C30.9929 27.9849 31.1989 28.0642 31.4046 28.0642C31.6103 28.0642 31.8163 27.9849 31.9734 27.8264C32.2529 27.5442 32.283 27.1065 32.0652 26.79H32.5573C33.7416 26.79 34.7051 25.8175 34.7051 24.622V24.6122C35.1808 25.1643 35.856 25.4773 36.5928 25.4775H36.5929C37.4102 25.4775 38.1528 25.0934 38.6301 24.4236L39.8995 22.6424H39.8996C40.5019 21.7971 40.8204 20.8 40.8204 19.7587V18.1166C40.8204 17.2273 40.3825 16.4398 39.7135 15.9606C39.9233 15.9368 40.135 15.9242 40.3482 15.9242H43.7776C44.5507 15.9242 45.2859 16.2194 45.8478 16.7552C46.7097 17.5771 47.8373 18.0298 49.0229 18.0298H50.4511C50.7461 19.4669 51.9282 20.5791 53.3913 20.7572V21.2266C53.3913 23.434 51.6122 25.2298 49.4253 25.2298H47.5463C46.8662 25.2298 46.3129 25.7883 46.3129 26.4748V30.8174C46.2384 30.8136 46.164 30.8094 46.0893 30.8094C43.6232 30.8094 41.6168 32.8346 41.6168 35.324C41.6168 37.3747 42.9789 39.1093 44.8375 39.6573C43.6443 41.3183 41.8181 42.5018 39.6989 42.8104C39.3031 42.8681 39.0094 43.2104 39.0094 43.6141V50.5058C39.0094 51.2597 39.617 51.873 40.3639 51.873C40.564 51.873 40.7269 52.0374 40.7269 52.2395V52.9045C40.7269 53.2328 40.4623 53.4999 40.1371 53.4999H37.9876C37.6623 53.4999 37.3977 53.2328 37.3977 52.9045V43.7043C37.3977 43.2558 37.0377 42.8924 36.5934 42.8924H34.4482V39.9522C34.4482 37.4005 32.3915 35.3245 29.8635 35.3245C27.3356 35.3245 25.2789 37.4004 25.2789 39.9522V42.8923H15.4511C15.5759 42.3325 15.64 41.7568 15.64 41.1739C15.64 38.5964 13.5626 36.4995 11.0091 36.4995H6.51265C6.06835 36.4995 5.70828 36.863 5.70828 37.3114C5.70828 37.7599 6.06846 38.1233 6.51265 38.1233H11.009C12.6753 38.1233 14.0311 39.4917 14.0311 41.1738C14.0311 42.3882 13.682 43.563 13.0215 44.5712C12.7765 44.9452 12.8782 45.4489 13.2487 45.6963C13.3854 45.7875 13.5394 45.8311 13.6917 45.8311C13.9527 45.8311 14.2086 45.703 14.3634 45.4668C14.5636 45.1613 14.7405 44.8435 14.8948 44.516H35.7888V52.9043C35.7888 54.128 36.7751 55.1236 37.9875 55.1236H40.137C41.3493 55.1236 42.3357 54.128 42.3357 52.9043V52.2393C42.3357 51.2287 41.5858 50.3916 40.6181 50.2653V44.2899C42.5492 43.856 44.3054 42.8061 45.62 41.2869C46.1179 40.7114 46.5388 40.0806 46.8809 39.4112C47.5772 38.1154 47.9216 36.5576 47.9216 35.0914V31.7695V26.8534H49.4253C52.4993 26.8534 55.0001 24.3291 55.0001 21.2262V19.9415V17.9513C55 17.0993 54.3133 16.406 53.4691 16.406ZM6.13925 3.27458L7.66346 1.73596L10.7549 4.85647L9.23063 6.39509L6.13925 3.27458ZM39.2115 19.7586C39.2115 20.4575 38.9979 21.1267 38.5935 21.694L37.3242 23.4752C37.1528 23.7156 36.8863 23.8534 36.5929 23.8534C36.2996 23.8534 36.0332 23.7156 35.8618 23.4752L34.5925 21.6941C34.1881 21.1267 33.9744 20.4575 33.9744 19.7586V18.1166C33.9744 17.5547 34.4273 17.0976 34.984 17.0976H38.2016C38.7583 17.0976 39.2112 17.5547 39.2112 18.1166V19.7586H39.2115ZM26.8875 42.8923V39.9522C26.8875 38.2959 28.2224 36.9485 29.8633 36.9485C31.5042 36.9485 32.8391 38.2959 32.8391 39.9522V42.8923H26.8875ZM43.2256 35.324C43.2256 33.7301 44.5102 32.4333 46.0893 32.4333C46.164 32.4333 46.2384 32.4363 46.3129 32.4422V35.0918C46.3129 35.217 46.3093 35.3413 46.3036 35.4654C46.2996 35.5478 46.2931 35.6295 46.2866 35.7113C46.2839 35.7479 46.2817 35.7847 46.2784 35.8212C46.2678 35.9335 46.2551 36.0451 46.2398 36.1562C46.2396 36.1575 46.2395 36.1588 46.2393 36.1601C46.1414 36.8665 45.9478 37.546 45.6721 38.184C44.29 37.9793 43.2256 36.7748 43.2256 35.324ZM52.1273 18.0298H53.3913V19.1115C52.8186 18.9769 52.3494 18.568 52.1273 18.0298Z" fill="#134C5F"/>
<path d="M20.6879 38.0473C19.5002 38.0473 18.3964 37.5072 17.6596 36.5654C17.4807 36.3367 17.1942 36.2057 16.8731 36.2057C16.8717 36.2057 16.8705 36.2057 16.8691 36.2057H16.8562C15.7903 36.2057 14.7617 35.7542 14.0344 34.9671C13.2968 34.1688 12.9322 33.127 13.0078 32.0338C13.1396 30.1293 14.6603 28.5799 16.5452 28.4298C17.8181 28.3281 19.0562 28.8649 19.857 29.8645C20.0604 30.1185 20.3502 30.2584 20.6478 30.2592C20.8462 30.2568 21.0484 30.2707 21.2473 30.2995C23.0449 30.5605 24.4293 32.0802 24.5387 33.9133C24.6036 34.9995 24.2338 36.0325 23.4973 36.8221C22.771 37.6008 21.747 38.0473 20.6879 38.0473ZM16.8658 34.5793C17.6905 34.5793 18.4375 34.9354 18.9242 35.5574C19.3536 36.1062 19.9965 36.4208 20.688 36.4208C21.3138 36.4208 21.8949 36.1674 22.3241 35.7071C22.7529 35.2474 22.9682 34.6451 22.9304 34.0111C22.8667 32.9449 22.0624 32.061 21.018 31.9094C20.9003 31.8922 20.782 31.8846 20.6646 31.8854C19.8741 31.8943 19.1187 31.5299 18.6039 30.887C18.1372 30.3045 17.4142 29.9923 16.6719 30.0512C15.5761 30.1385 14.6919 31.0395 14.6153 32.1472C14.5711 32.7855 14.7833 33.3931 15.2128 33.8579C15.6427 34.3231 16.2263 34.5793 16.8562 34.5793H16.8658Z" fill="#134C5F"/>
</svg>
