<svg width="25" height="25" viewBox="0 0 25 25" fill="none" xmlns="http://www.w3.org/2000/svg">
<path d="M9.375 8.59375V6.64062C9.375 6.12262 9.58078 5.62584 9.94706 5.25956C10.3133 4.89328 10.8101 4.6875 11.3281 4.6875H19.1406C19.6586 4.6875 20.1554 4.89328 20.5217 5.25956C20.888 5.62584 21.0938 6.12262 21.0938 6.64062V18.3594C21.0938 18.8774 20.888 19.3742 20.5217 19.7404C20.1554 20.1067 19.6586 20.3125 19.1406 20.3125H11.7188C10.6401 20.3125 9.375 19.438 9.375 18.3594V16.4062" stroke="black" stroke-linecap="round" stroke-linejoin="round"/>
<path d="M14.0625 16.4062L17.9688 12.5L14.0625 8.59375" stroke="black" stroke-linecap="round" stroke-linejoin="round"/>
<path d="M3.90625 12.5H17.1875" stroke="black" stroke-linecap="round" stroke-linejoin="round"/>
</svg>
