<svg width="35" height="35" viewBox="0 0 35 35" fill="none" xmlns="http://www.w3.org/2000/svg">
<g clip-path="url(#clip0)">
<path d="M32.3853 11.1636L18.1663 0.225924C17.7733 -0.0753079 17.2264 -0.0753079 16.8333 0.225924L2.61432 11.1636C2.24259 11.4498 2.09415 11.9401 2.24578 12.3834C2.39639 12.8267 2.81299 13.1247 3.28083 13.1247H4.47823L6.56752 34.0153C6.62303 34.5738 7.09413 35.0001 7.65591 35.0001H27.3437C27.9056 35.0001 28.3766 34.5739 28.4321 34.0153L30.5214 13.1247H31.7188C32.1866 13.1247 32.6032 12.8266 32.7539 12.3834C32.9055 11.9401 32.757 11.4498 32.3853 11.1636ZM13.1247 32.8125V26.2499C13.1247 23.837 15.0869 21.8748 17.4998 21.8748C19.9127 21.8748 21.8749 23.837 21.8749 26.2499V32.8125H13.1247ZM28.4428 11.9219L26.3535 32.8125H24.0624V26.2499C24.0624 22.6311 21.1186 19.6873 17.4998 19.6873C13.881 19.6873 10.9372 22.6311 10.9372 26.2499V32.8125H8.64609L6.5568 11.9219C6.52691 11.6261 6.38165 11.3676 6.168 11.1903L17.4998 2.47328L28.8316 11.1903C28.6181 11.3676 28.4728 11.6261 28.4428 11.9219Z" fill="#134C5F"/>
<path d="M13.125 10.9371C11.9191 10.9371 10.9375 11.9188 10.9375 13.1246C10.9375 13.5316 11.0794 13.8917 11.2738 14.2184C11.0794 14.5451 10.9375 14.9052 10.9375 15.3121C10.9375 16.5181 11.9191 17.4996 13.125 17.4996C14.3309 17.4996 15.3125 16.518 15.3125 15.3121H19.6876C19.6876 16.5181 20.6692 17.4996 21.8751 17.4996C23.0809 17.4996 24.0626 16.518 24.0626 15.3121C24.0626 14.9052 23.9207 14.5451 23.7263 14.2184C23.9207 13.8917 24.0626 13.5316 24.0626 13.1246C24.0626 11.9187 23.0809 10.9371 21.8751 10.9371C20.6692 10.9371 19.6876 11.9188 19.6876 13.1246H15.3125C15.3126 11.9188 14.3309 10.9371 13.125 10.9371Z" fill="#89C4B8"/>
</g>
<defs>
<clipPath id="clip0">
<rect width="35" height="35" fill="white"/>
</clipPath>
</defs>
</svg>
