<svg width="46" height="55" viewBox="0 0 46 55" fill="none" xmlns="http://www.w3.org/2000/svg">
<path d="M12.4534 28.0221C12.4534 28.4371 12.1776 28.7733 11.8371 28.7733C11.4969 28.7733 11.2207 28.4371 11.2207 28.0221C11.2207 27.6076 11.4969 27.271 11.8371 27.271C12.1776 27.271 12.4534 27.6076 12.4534 28.0221Z" fill="#134C5F"/>
<path d="M12.4534 31.3489C12.4534 31.7641 12.1776 32.1004 11.8371 32.1004C11.4969 32.1004 11.2207 31.7641 11.2207 31.3489C11.2207 30.9342 11.4969 30.5974 11.8371 30.5974C12.1776 30.5974 12.4534 30.9342 12.4534 31.3489Z" fill="#134C5F"/>
<path d="M25.1326 28.0221C25.1326 28.4371 24.8568 28.7733 24.5163 28.7733C24.1761 28.7733 23.8999 28.4371 23.8999 28.0221C23.8999 27.6076 24.1761 27.271 24.5163 27.271C24.8568 27.271 25.1326 27.6076 25.1326 28.0221Z" fill="#134C5F"/>
<path d="M25.1326 31.3489C25.1326 31.7641 24.8568 32.1004 24.5163 32.1004C24.1761 32.1004 23.8999 31.7641 23.8999 31.3489C23.8999 30.9342 24.1761 30.5974 24.5163 30.5974C24.8568 30.5974 25.1326 30.9342 25.1326 31.3489Z" fill="#134C5F"/>
<path d="M12.5344 19.7828C12.1698 19.7828 11.874 20.1433 11.874 20.5876C11.874 21.0324 12.1698 21.3924 12.5344 21.3924H15.1759C15.5405 21.3924 15.8363 21.0324 15.8363 20.5876C15.8363 20.1433 15.5405 19.7828 15.1759 19.7828H12.5344Z" fill="#134C5F"/>
<path d="M21.1633 21.3924H23.8048C24.1694 21.3924 24.4652 21.0324 24.4652 20.5876C24.4652 20.1433 24.1694 19.7828 23.8048 19.7828H21.1633C20.7987 19.7828 20.5029 20.1433 20.5029 20.5876C20.5029 21.0324 20.7987 21.3924 21.1633 21.3924Z" fill="#134C5F"/>
<path d="M44.0187 40.2995H42.0376V26.5635C43.0034 26.2156 43.7105 25.1254 43.7105 23.8365C43.7105 22.5481 43.0034 21.4578 42.0376 21.11V5.30168C42.0376 3.03784 40.5259 1.1961 38.6679 1.1961H35.5755C35.4004 1.1961 35.2322 1.28118 35.1084 1.43208L33.5022 3.39077L31.3501 0.768143C30.9759 0.312107 30.4785 0.0610352 29.9492 0.0610352C29.4199 0.0610352 28.9225 0.312107 28.5483 0.768143C28.1741 1.22418 27.9681 1.83027 27.9681 2.47534C27.9681 3.12042 28.1741 3.72651 28.5483 4.18255L33.7742 10.5511C34.1484 11.0072 34.6461 11.2582 35.1751 11.2582C35.7045 11.2582 36.2018 11.0072 36.576 10.5511C36.9502 10.0951 37.1563 9.48899 37.1563 8.84392C37.1563 8.19927 36.9502 7.59276 36.576 7.13672L34.436 4.52876L35.8493 2.80563H38.6679C39.7978 2.80563 40.7168 3.92561 40.7168 5.30168V21.11C39.751 21.4578 39.0438 22.5485 39.0438 23.8369C39.0438 25.1254 39.751 26.2156 40.7168 26.5635V40.2995H37.547C37.1824 40.2995 36.8866 40.6596 36.8866 41.1043C36.8866 41.549 37.1824 41.909 37.547 41.909H44.0187C44.3829 41.909 44.6791 42.2699 44.6791 42.7138C44.6791 43.1577 44.3829 43.5186 44.0187 43.5186H2.89911C2.53487 43.5186 2.23873 43.1577 2.23873 42.7138C2.23873 42.2699 2.53487 41.909 2.89911 41.909H34.7074C35.0719 41.909 35.3677 41.549 35.3677 41.1043C35.3677 40.6596 35.0719 40.2995 34.7074 40.2995H29.5416C29.9103 39.4214 30.1074 38.4456 30.1074 37.4451V32.7967H30.2292C32.0555 32.7967 33.5414 30.986 33.5414 28.7603V24.8748C33.5414 20.2293 30.5301 16.4121 26.7615 16.177C25.9955 14.9774 24.8006 14.2036 23.4596 14.2036H22.4842C22.1192 14.2036 21.8238 14.5637 21.8238 15.0084C21.8238 15.4527 22.1192 15.8131 22.4842 15.8131H23.4596C25.0376 15.8131 26.3212 17.3774 26.3212 19.3005V24.1274C26.1964 24.1136 26.0698 24.1052 25.9419 24.1052H21.735C21.3708 23.0359 20.5051 22.2815 19.4973 22.2815H16.8558C15.848 22.2815 14.9827 23.0359 14.6184 24.1052H10.4106C10.283 24.1052 10.1567 24.1136 10.0322 24.1274V19.3005C10.0322 17.3774 11.3158 15.8131 12.8939 15.8131H19.6775C20.0421 15.8131 20.3379 15.4527 20.3379 15.0084C20.3379 14.5637 20.0421 14.2036 19.6775 14.2036H12.8939C11.5528 14.2036 10.3579 14.9774 9.59232 16.177C5.82335 16.4109 2.81209 20.2285 2.81209 24.8748V28.7603C2.81209 30.986 4.29794 32.7967 6.1243 32.7967H6.24606V33.5214C6.24606 33.9661 6.54151 34.3262 6.90644 34.3262C7.27102 34.3262 7.56681 33.9661 7.56681 33.5214V29.182C7.56681 27.6353 8.40157 26.3225 9.55105 25.8774C9.56205 25.8736 9.57306 25.8694 9.58407 25.8648C9.84581 25.7676 10.1234 25.7147 10.4109 25.7147H14.4348V28.4514C14.4348 30.0785 15.5209 31.4022 16.8561 31.4022H17.5165V35.3724H13.3902C12.6067 35.3724 11.9693 34.7227 11.9693 33.9238C11.9693 33.4795 11.6735 33.119 11.309 33.119C10.944 33.119 10.6486 33.4795 10.6486 33.9238C10.6486 35.6101 11.8785 36.9819 13.3902 36.9819H22.9633C24.4749 36.9819 25.7049 35.6101 25.7049 33.9238C25.7049 33.4795 25.4094 33.119 25.0445 33.119C24.6799 33.119 24.3841 33.4795 24.3841 33.9238C24.3841 34.7227 23.7468 35.3724 22.9633 35.3724H18.8369V31.4022H19.4973C20.8325 31.4022 21.9187 30.0785 21.9187 28.4514V25.7147H25.9419C26.2304 25.7147 26.509 25.768 26.7715 25.8656C26.7811 25.8694 26.7904 25.8732 26.8 25.8765C27.9505 26.3213 28.7866 27.6345 28.7866 29.182V37.4451C28.7866 38.4804 28.5032 39.4809 27.9842 40.2995H8.3689C7.85023 39.4809 7.56681 38.4804 7.56681 37.4451V36.9731C7.56681 36.5284 7.27102 36.1684 6.90644 36.1684C6.54151 36.1684 6.24606 36.5284 6.24606 36.9731V37.4451C6.24606 38.4456 6.44314 39.4214 6.81185 40.2995H2.89911C1.80673 40.2995 0.917969 41.3826 0.917969 42.7138C0.917969 44.045 1.80673 45.1281 2.89911 45.1281H2.98922C3.07555 50.5892 6.74719 55 11.2488 55H35.7757C40.2542 55 43.9004 50.5775 43.93 45.1281H44.0187C45.1111 45.1281 45.9998 44.045 45.9998 42.7138C45.9998 41.3826 45.1111 40.2995 44.0187 40.2995ZM35.8355 8.84392C35.8355 9.05895 35.7667 9.26098 35.6422 9.41313C35.5173 9.56528 35.3516 9.64869 35.1751 9.64869C34.9987 9.64869 34.8329 9.56528 34.7084 9.41313L29.4821 3.04455C29.3573 2.8924 29.2888 2.69037 29.2888 2.47534C29.2888 2.26032 29.3573 2.05829 29.4821 1.90614C29.607 1.7544 29.7727 1.67057 29.9492 1.67057C30.1256 1.67057 30.2914 1.7544 30.4159 1.90614L35.6422 8.27513C35.7667 8.42687 35.8355 8.62932 35.8355 8.84392ZM40.3646 23.8365C40.3646 23.1575 40.8169 22.6051 41.3737 22.603H41.3772H41.3806C41.9375 22.6051 42.3898 23.1575 42.3898 23.8365C42.3898 24.5172 41.9354 25.0705 41.3772 25.0705C40.819 25.0705 40.3646 24.5172 40.3646 23.8365ZM6.24606 29.182V31.1872H6.1243C5.02608 31.1872 4.13284 30.0986 4.13284 28.7603V24.8748C4.13284 21.4168 6.17899 18.5234 8.87313 17.9005C8.76857 18.3457 8.71147 18.8147 8.71147 19.3005V24.5491C7.25967 25.343 6.24606 27.1202 6.24606 29.182ZM20.5979 28.4514C20.5979 29.1912 20.1044 29.7927 19.4973 29.7927H16.8558C16.2491 29.7927 15.7552 29.1912 15.7552 28.4514V25.2323C15.7552 24.4929 16.2491 23.891 16.8558 23.891H19.4973C20.1044 23.891 20.5979 24.4929 20.5979 25.2323V28.4514ZM27.6423 24.5495V19.3005C27.6423 18.8151 27.5849 18.3457 27.4807 17.9009C30.1745 18.5246 32.221 21.4176 32.221 24.8748V28.7603C32.221 30.0986 31.3274 31.1876 30.2292 31.1876H30.1077V29.182C30.1077 27.1206 29.0934 25.3434 27.6423 24.5495ZM35.7757 53.3904H11.2488C7.47567 53.3904 4.39596 49.7019 4.30963 45.1281H42.6095C42.5803 49.6902 39.5261 53.3904 35.7757 53.3904Z" fill="#134C5F"/>
<path d="M28.3775 10.9238C28.5467 10.9238 28.7156 10.8454 28.8446 10.6882L29.2731 10.1659C29.5311 9.85155 29.5311 9.34226 29.2731 9.02789C29.0152 8.71352 28.5973 8.71352 28.3393 9.02789L27.9108 9.54975C27.6528 9.86412 27.6528 10.3738 27.9108 10.6878C28.0397 10.8454 28.2086 10.9238 28.3775 10.9238Z" fill="#134C5F"/>
<path d="M31.2272 13.8251C31.5075 13.8251 31.7675 13.6063 31.8566 13.2634L32.0433 12.545C32.1534 12.1212 31.9611 11.6689 31.6134 11.5344C31.2657 11.3998 30.8946 11.6346 30.7845 12.0584L30.5974 12.7772C30.4873 13.2006 30.6799 13.6533 31.0273 13.7874C31.0937 13.813 31.1611 13.8251 31.2272 13.8251Z" fill="#134C5F"/>
<path d="M25.9965 7.45192C26.0629 7.45192 26.13 7.43976 26.1963 7.41377L26.7862 7.18618C27.1336 7.05164 27.3262 6.59938 27.2161 6.17563C27.1057 5.75188 26.7346 5.51716 26.3869 5.65171L25.7974 5.87972C25.4496 6.01384 25.2574 6.4661 25.3674 6.88985C25.4565 7.23271 25.7165 7.45192 25.9965 7.45192Z" fill="#134C5F"/>
</svg>
