<svg width="67" height="56" viewBox="0 0 67 56" fill="none" xmlns="http://www.w3.org/2000/svg">
<path d="M49.6674 7.34829C49.5054 6.9219 48.954 6.68422 48.4363 6.81762C47.9182 6.9508 47.6295 7.40448 47.7915 7.83077C47.8067 7.87099 49.2097 11.6645 47.0535 14.1266C45.8843 13.7067 43.2877 12.4616 42.6413 9.53559C42.5443 9.09615 42.0331 8.80412 41.4985 8.88457C40.9645 8.96448 40.6103 9.38559 40.7074 9.82503C41.7633 14.6046 46.8906 15.8155 47.1083 15.8647C47.1943 15.8841 47.2817 15.8936 47.3685 15.8936C47.6384 15.8936 47.901 15.8019 48.0896 15.6343C49.5543 14.3325 50.2878 12.476 50.2109 10.2657C50.1548 8.64808 49.6873 7.40049 49.6674 7.34829Z" fill="#134C5F"/>
<path d="M52.9464 6.68066C52.1692 6.68066 51.5371 7.20088 51.5371 7.84037C51.5371 8.47997 52.1692 9.00018 52.9464 9.00018C53.7234 9.00018 54.3556 8.47997 54.3556 7.84037C54.3556 7.20088 53.7233 6.68066 52.9464 6.68066Z" fill="#134C5F"/>
<path d="M7.24682 22.9801C6.25959 24.6002 5.81276 26.3975 5.95061 28.2206C5.95847 28.3244 5.96764 28.4292 5.97813 28.5346C6.0975 29.7377 5.7724 31.165 5.01148 32.7768C4.81492 33.1932 5.06572 33.6618 5.57165 33.8236C5.68867 33.861 5.80896 33.8787 5.92729 33.8787C6.32092 33.8787 6.69253 33.6827 6.84362 33.3626C7.71304 31.5207 8.08086 29.852 7.93698 28.4026C7.92755 28.3079 7.91929 28.2138 7.91235 28.1204C7.78105 26.3846 8.27859 24.6765 9.35112 23.1808C9.60467 22.8274 9.49618 22.3737 9.09888 22.1256C5.80306 20.0667 4.00604 17.4344 3.07883 15.5887C0.263394 9.98426 3.64621 3.33423 4.35302 2.05806C4.37176 2.0242 4.38447 2.00091 4.39102 1.98818C4.55272 1.68019 4.98894 1.5372 5.36344 1.67081C5.73741 1.80367 5.91064 2.16234 5.74816 2.47303C5.74004 2.48867 4.93731 4.05557 4.46519 6.28559C4.37202 6.72568 4.73001 7.14453 5.26477 7.2212C5.79887 7.29788 6.30847 7.00326 6.40163 6.56317C6.83078 4.53567 7.5499 3.12007 7.55514 3.10971C8.14415 1.98355 7.51059 0.671893 6.14284 0.185753C4.77325 -0.301034 3.17789 0.220154 2.58731 1.34557L2.56438 1.38719C2.0578 2.30189 1.11932 4.19555 0.525465 6.60026C-0.368723 10.2211 -0.120803 13.4531 1.26254 16.2066C2.61142 18.8918 4.67104 21.22 7.24682 22.9801Z" fill="#134C5F"/>
<path d="M66.1516 10.3302C66.1831 10.063 66.2 9.79428 66.2 9.52587C66.2 9.19944 65.9615 8.90483 65.5952 8.7793L63.7581 8.1493C63.7579 8.1492 63.7576 8.1492 63.7572 8.14909L57.8485 6.123L55.5072 3.57325C53.4524 1.3358 50.1911 0 46.783 0C43.3117 0 40.2012 1.70235 38.8586 4.33697L33.5716 14.7127L16.4439 0.318234C16.0641 -0.00118622 15.4419 -0.00636252 15.0542 0.306263C14.6664 0.618782 14.6598 1.13091 15.0397 1.45001L32.7468 16.3314L32.306 17.1964H18.6509C16.3368 17.1964 14.0919 17.7058 12.1193 18.674C9.75241 17.4452 8.06651 15.8589 7.10418 13.9531C6.45673 12.6704 6.11591 11.2147 6.09128 9.62692C6.08446 9.18381 5.64588 8.82847 5.1089 8.82847C5.10471 8.82847 5.10025 8.82847 5.09606 8.82858C4.55331 8.8343 4.11893 9.20095 4.126 9.64762C4.15391 11.4426 4.54518 13.1 5.28921 14.5738C6.48713 16.9464 8.62223 18.8809 11.6353 20.3237C11.9591 20.4788 12.3619 20.4689 12.6739 20.298C14.447 19.3273 16.5139 18.8141 18.6509 18.8141H32.7846L51.3316 24.4281V28.6287C51.3316 31.9929 48.0059 34.7298 43.9181 34.7298C43.3754 34.7298 42.9354 35.092 42.9354 35.5386V50.5754C42.9354 51.0221 43.3754 51.3842 43.9181 51.3842C45.5574 51.3842 46.7378 51.868 47.4262 52.8223C47.6052 53.0702 47.7313 53.3221 47.8201 53.5491H40.8771C39.1601 53.5491 37.7634 52.3996 37.7634 50.9866V35.2809C37.7634 34.8341 37.3235 34.4721 36.7806 34.4721H20.634C20.2873 34.4721 19.966 34.6227 19.789 34.868C16.3691 39.6082 7.91647 41.8575 7.83195 41.8795C7.42312 41.9857 7.14506 42.2979 7.14506 42.6507V50.5752C7.14506 51.0219 7.58508 51.384 8.12783 51.384C9.76722 51.384 10.9476 51.8678 11.6361 52.822C11.815 53.07 11.9411 53.3219 12.0299 53.5489H5.08702C3.37006 53.5489 1.97335 52.3994 1.97335 50.9864V42.416C1.97335 40.888 2.55436 39.4165 3.65349 38.1603C4.13976 37.6046 4.6107 37.0075 5.05321 36.3855C5.3276 36.0001 5.17009 35.5046 4.70177 35.2789C4.23371 35.0529 3.63134 35.1826 3.35708 35.5681C2.9455 36.1463 2.50863 36.7005 2.05852 37.215C0.716978 38.7481 0.0078125 40.5465 0.0078125 42.4159V50.9863C0.0078125 53.2911 2.28639 55.1664 5.08702 55.1664H13.2196C13.768 55.1664 14.2213 54.7799 14.2017 54.3288C14.1999 54.2858 13.9672 50.2901 9.11047 49.8127V43.2263C9.99928 42.9587 11.644 42.4157 13.5037 41.5725V49.4834C13.5037 51.7884 15.7823 53.6636 18.5829 53.6636H26.7156C27.2643 53.6636 27.7173 53.2771 27.6978 52.8259C27.6959 52.7831 27.4631 48.7873 22.6065 48.3099V41.7231C24.4828 41.1575 29.7385 39.3619 33.2732 36.0894H35.7976V50.9863C35.7976 53.2911 38.0762 55.1664 40.8768 55.1664H49.0095C49.5579 55.1664 50.0112 54.7799 49.9916 54.3288C49.9912 54.318 49.9759 54.0563 49.8761 53.6636H54.9593C55.5078 53.6636 55.961 53.277 55.9414 52.8259C55.9396 52.7831 55.7069 48.7873 50.8503 48.3099V42.8155C50.8503 42.3687 50.4104 42.0067 49.8675 42.0067C49.3247 42.0067 48.8848 42.3687 48.8848 42.8155V49.0724C48.8848 49.5191 49.3247 49.8811 49.8675 49.8811C52.4932 49.8811 53.4422 51.1505 53.785 52.046H49.1428C48.4475 51.0415 47.1864 50.0374 44.9006 49.8127V36.3053C46.3522 36.1803 47.7058 35.781 48.8848 35.1727V39.5806C48.8848 40.0272 49.3247 40.3894 49.8675 40.3894C50.4104 40.3894 50.8503 40.0272 50.8503 39.5806V33.8217C52.3693 32.4496 53.2969 30.6267 53.2969 28.6285V16.9913H57.0119C59.726 16.9913 62.2757 16.057 64.0072 14.428C65.2439 13.2644 65.9603 11.8977 66.1482 10.3573C66.1494 10.3484 66.1506 10.3393 66.1516 10.3302ZM21.3281 40.3766C20.9191 40.4829 20.6412 40.795 20.6412 41.1479V49.0725C20.6412 49.5192 21.0811 49.8813 21.624 49.8813C24.2495 49.8813 25.1986 51.1506 25.5414 52.0461H18.583C16.8662 52.0461 15.4694 50.8966 15.4694 49.4835V40.5985C17.5619 39.4654 19.6896 37.9741 21.1798 36.0895H30.5018C26.6044 38.9754 21.3873 40.3612 21.3281 40.3766ZM34.2632 17.538L35.2373 15.6262L51.3315 20.6039V22.7045L34.2632 17.538ZM62.5278 13.3631C61.1696 14.6409 59.1592 15.3738 57.0119 15.3738H52.3141C51.7712 15.3738 51.3313 15.7358 51.3313 16.1826V18.8759L35.9979 14.1334L40.6711 4.96244C41.7066 2.93053 44.1056 1.61759 46.783 1.61759C49.5785 1.61759 52.2537 2.71324 53.9391 4.54866L56.4411 7.27311C56.5462 7.38753 56.6862 7.47682 56.8472 7.53192L62.5159 9.47583C62.7419 10.1911 63.235 10.8348 63.9222 11.3108C63.6431 12.0646 63.1781 12.7512 62.5278 13.3631Z" fill="#134C5F"/>
</svg>
